<svg width="44" height="44" viewBox="0 0 44 44" fill="none" xmlns="http://www.w3.org/2000/svg">
<path d="M41.8251 0L24.6318 13.7537L27.825 5.63933L41.8251 0Z" fill="#E17726"/>
<path d="M2.1748 0L19.2117 13.8838L16.175 5.63933L2.1748 0Z" fill="#E27625"/>
<path d="M35.6451 31.8835L31.0713 39.4405L40.8581 42.3427L43.6551 32.0503L35.6451 31.8835Z" fill="#E27625"/>
<path d="M0.362305 32.0503L3.14227 42.3427L12.9291 39.4405L8.37235 31.8835L0.362305 32.0503Z" fill="#E27625"/>
<path d="M12.3933 19.1144L9.66602 23.5639L19.3678 24.0295L19.0397 12.7674L12.3933 19.1144Z" fill="#E27625"/>
<path d="M31.6064 19.1143L24.8563 12.6372L24.6318 24.0295L34.3337 23.5638L31.6064 19.1143Z" fill="#E27625"/>
<path d="M12.9287 39.4405L18.7811 36.3678L13.7397 32.1255L12.9287 39.4405Z" fill="#E27625"/>
<path d="M25.2188 36.3678L31.0711 39.4405L30.2601 32.1255L25.2188 36.3678Z" fill="#E27625"/>
<path d="M31.0711 39.4405L25.2188 36.3678L25.6846 40.4818L25.6336 42.2125L31.0711 39.4405Z" fill="#D5BFB2"/>
<path d="M12.9287 39.4405L18.3662 42.2125L18.3322 40.4818L18.7811 36.3678L12.9287 39.4405Z" fill="#D5BFB2"/>
<path d="M18.4705 29.4067L13.6025 27.863L17.0371 26.169L18.4705 29.4067Z" fill="#233447"/>
<path d="M25.5293 29.4067L26.9626 26.169L30.4142 27.863L25.5293 29.4067Z" fill="#233447"/>
<path d="M12.9288 39.4405L13.7739 31.8835L8.37207 32.0503L12.9288 39.4405Z" fill="#CC6228"/>
<path d="M30.2256 31.8835L31.0706 39.4405L35.6444 32.0503L30.2256 31.8835Z" fill="#CC6228"/>
<path d="M34.3337 23.5638L24.6318 24.0295L25.5296 29.4067L26.9629 26.169L30.4145 27.863L34.3337 23.5638Z" fill="#CC6228"/>
<path d="M13.6022 27.863L17.0368 26.169L18.4701 29.4067L19.3678 24.0295L9.66602 23.5638L13.6022 27.863Z" fill="#CC6228"/>
<path d="M9.66602 23.5638L13.7399 32.1255L13.6022 27.863L9.66602 23.5638Z" fill="#E27525"/>
<path d="M30.4145 27.863L30.2598 32.1255L34.3337 23.5638L30.4145 27.863Z" fill="#E27525"/>
<path d="M19.3685 24.0295L18.4707 29.4067L19.6099 35.7537L19.8513 27.3973L19.3685 24.0295Z" fill="#E27525"/>
<path d="M24.6319 24.0295L24.166 27.379L24.3905 35.7537L25.5297 29.4067L24.6319 24.0295Z" fill="#E27525"/>
<path d="M25.5298 29.4066L24.3906 35.7536L25.2187 36.3678L30.26 32.1255L30.4147 27.863L25.5298 29.4066Z" fill="#F5841F"/>
<path d="M13.6025 27.863L13.7403 32.1255L18.7816 36.3678L19.6096 35.7536L18.4705 29.4066L13.6025 27.863Z" fill="#F5841F"/>
<path d="M25.6332 42.2125L25.6843 40.4818L25.2541 40.073H18.7454L18.3322 40.4818L18.3662 42.2125L12.9287 39.4405L14.8279 41.1143L18.6944 44H25.3051L29.1715 41.1143L31.0708 39.4405L25.6332 42.2125Z" fill="#C0AC9D"/>
<path d="M25.2182 36.3678L24.3901 35.7537H19.6089L18.7809 36.3678L18.332 40.4818L18.7452 40.073H25.2539L25.6841 40.4818L25.2182 36.3678Z" fill="#161616"/>
<path d="M42.5498 14.6483L44.0001 7.05467L41.8254 0L25.2188 13.2898L31.6067 19.1143L40.6335 21.9633L42.6195 19.4498L41.7557 18.7807L43.1364 17.4203L42.0839 16.5275L43.4645 15.3927L42.5498 14.6483Z" fill="#763E1A"/>
<path d="M0 7.05467L1.46735 14.6483L0.53559 15.3927L1.91622 16.5275L0.863745 17.4203L2.24438 18.7807L1.38063 19.4498L3.36657 21.9633L12.3934 19.1143L18.7814 13.2898L2.17467 0L0 7.05467Z" fill="#763E1A"/>
<path d="M40.6332 21.9633L31.6064 19.1143L34.3337 23.5638L30.2598 32.1255L35.6446 32.0503H43.6546L40.6332 21.9633Z" fill="#F5841F"/>
<path d="M12.3935 19.1143L3.36671 21.9633L0.362305 32.0503H8.37235L13.7402 32.1255L9.66627 23.5638L12.3935 19.1143Z" fill="#F5841F"/>
<path d="M24.632 24.0295L25.2186 13.2898L27.8252 5.63934H16.1748L18.7813 13.2898L19.3679 24.0295L19.5924 27.4157L19.6094 35.7537H24.3906L24.4076 27.4157L24.632 24.0295Z" fill="#F5841F"/>
</svg>
