<svg width="18" height="21" viewBox="0 0 18 21" fill="none" xmlns="http://www.w3.org/2000/svg">
<path d="M0.045355 17.7607C-0.0356513 17.1633 -0.0660287 16.6469 0.470638 16.2014C1.07819 15.6951 1.80724 15.1787 2.09076 14.5002C2.37429 13.8218 2.16164 12.951 2.17177 12.1612C2.20215 10.7334 2.10089 9.29559 2.28315 7.8881C2.63756 5.14401 4.11592 3.20999 6.86001 2.37967C6.91064 2.36955 6.95114 2.33917 7.03215 2.30879C7.03215 2.05565 7.02202 1.78225 7.03215 1.51898C7.08278 0.678541 7.78146 0.0102393 8.63202 0.000113551C9.50284 -0.0100122 10.2319 0.65829 10.2724 1.51898C10.2825 1.77213 10.2724 2.02527 10.2724 2.30879C10.3737 2.3493 10.4547 2.37967 10.5458 2.41005C13.1785 3.23024 14.6265 5.10351 15.0011 7.73622C15.2037 9.17408 15.1024 10.6524 15.1429 12.1106C15.1632 12.9206 14.9505 13.8117 15.234 14.5002C15.5074 15.1787 16.2466 15.6951 16.8542 16.2014C17.3807 16.6469 17.3605 17.1633 17.2794 17.7506C11.528 17.7607 5.81705 17.7607 0.045355 17.7607ZM12.9152 15.5634C12.9152 13.0928 13.0266 10.6727 12.8747 8.26276C12.7735 6.56163 11.852 5.20477 10.1509 4.57697C7.41693 3.56439 4.58171 5.41741 4.40957 8.39439C4.27793 10.7233 4.35894 13.0624 4.34881 15.4014C4.34881 15.4521 4.37919 15.4926 4.39944 15.5634C7.23466 15.5634 10.0699 15.5634 12.9152 15.5634Z" fill="#7879F1"/>
<path d="M6.54597 18.8442C7.9332 18.8442 9.33056 18.8442 10.7988 18.8442C10.8191 19.5429 10.5355 20.0897 10.009 20.5048C9.30019 21.0617 8.51037 21.1529 7.69019 20.758C6.93075 20.3934 6.49534 19.6543 6.54597 18.8442Z" fill="#7879F1"/>
</svg>
