<svg width="16" height="14" viewBox="0 0 16 14" fill="none" xmlns="http://www.w3.org/2000/svg">
<path fill-rule="evenodd" clip-rule="evenodd" d="M15.84 2.00788C15.2573 2.2717 14.63 2.45133 13.9735 2.53088C14.6429 2.11925 15.1589 1.46765 15.4017 0.69078C14.775 1.07192 14.0783 1.34966 13.339 1.49748C12.7459 0.851193 11.9017 0.44751 10.9668 0.44751C9.17083 0.44751 7.71735 1.93696 7.71735 3.77375C7.71735 4.03558 7.74519 4.28813 7.80023 4.53205C5.0998 4.39419 2.70561 3.06912 1.10322 1.05668C0.82353 1.54852 0.662967 2.11924 0.662967 2.72973C0.662967 3.88378 1.26961 4.90194 2.14234 5.49917C1.60951 5.48061 0.702461 5.33213 0.702461 5.08289V5.12399C0.702461 6.73607 1.78949 8.08101 3.27664 8.3866C3.00407 8.46216 2.70043 8.5026 2.40326 8.5026C2.19478 8.5026 1.98243 8.48205 1.78302 8.44227C2.19673 9.76402 3.39188 10.7265 4.81558 10.753C3.70265 11.6466 2.29967 12.1781 0.776267 12.1781C0.514059 12.1781 0.25444 12.1623 0 12.1304C1.43794 13.0757 3.1465 13.6272 4.98132 13.6272C10.959 13.6272 14.2273 8.55628 14.2273 4.16086C14.2273 4.01569 14.224 3.87251 14.2175 3.73C14.8533 3.26069 15.403 2.67472 15.84 2.00788Z" fill="#7879F1"/>
</svg>
