<svg width="21" height="20" viewBox="0 0 21 20" fill="none" xmlns="http://www.w3.org/2000/svg">
<path fill-rule="evenodd" clip-rule="evenodd" d="M2.96582 4.16665C2.96582 2.3257 4.4582 0.833313 6.29915 0.833313H13.2518C14.1358 0.833313 14.9837 1.1845 15.6088 1.80962L16.9895 3.19034C17.6146 3.81546 17.9658 4.6633 17.9658 5.54736V15.8333C17.9658 17.6743 16.4734 19.1666 14.6325 19.1666H6.29915C4.4582 19.1666 2.96582 17.6743 2.96582 15.8333V4.16665ZM16.2992 6.66665V15.8333C16.2992 16.7538 15.553 17.5 14.6325 17.5H6.29915C5.37868 17.5 4.63249 16.7538 4.63249 15.8333V4.16665C4.63249 3.24617 5.37868 2.49998 6.29915 2.49998H12.1325V4.16665C12.1325 5.54736 13.2518 6.66665 14.6325 6.66665H16.2992ZM16.2067 4.99998C16.1249 4.76464 15.9905 4.54838 15.811 4.36885L14.4303 2.98813C14.2508 2.80861 14.0345 2.67426 13.7992 2.59243V4.16665C13.7992 4.62688 14.1722 4.99998 14.6325 4.99998H16.2067Z" fill="white"/>
<path d="M9.63216 10C9.63216 9.53978 10.0053 9.16669 10.4655 9.16669C10.9257 9.16669 11.2988 9.53978 11.2988 10V14.1667C11.2988 14.6269 10.9257 15 10.4655 15C10.0053 15 9.63216 14.6269 9.63216 14.1667V10Z" fill="white"/>
<path d="M6.29883 12.5C6.29883 12.0398 6.67192 11.6667 7.13216 11.6667C7.5924 11.6667 7.96549 12.0398 7.96549 12.5V14.1667C7.96549 14.6269 7.5924 15 7.13216 15C6.67192 15 6.29883 14.6269 6.29883 14.1667V12.5Z" fill="white"/>
<path d="M13.7988 10.8334C13.3386 10.8334 12.9655 11.2064 12.9655 11.6667V14.1667C12.9655 14.6269 13.3386 15 13.7988 15C14.2591 15 14.6322 14.6269 14.6322 14.1667V11.6667C14.6322 11.2064 14.2591 10.8334 13.7988 10.8334Z" fill="white"/>
</svg>
