<svg width="21" height="20" viewBox="0 0 21 20" fill="none" xmlns="http://www.w3.org/2000/svg">
<path fill-rule="evenodd" clip-rule="evenodd" d="M9.69058 12.5015C10.1505 12.4842 10.5374 12.8429 10.5548 13.3028C10.5939 14.3397 10.6489 15.0964 10.7029 15.639C10.7562 16.1733 11.0787 16.4948 11.5284 16.5498C12.0586 16.6146 12.8065 16.6676 13.8329 16.6676C14.8593 16.6676 15.6073 16.6146 16.1375 16.5498C16.5869 16.4948 16.9096 16.1732 16.9629 15.6387C17.0632 14.6316 17.1662 12.8916 17.1662 10.001C17.1662 7.11027 17.0632 5.3703 16.9629 4.36319C16.9096 3.82873 16.5869 3.50709 16.1375 3.45215C15.6073 3.38734 14.8593 3.33429 13.8329 3.33429C12.8065 3.33429 12.0586 3.38733 11.5284 3.45215C11.0787 3.50711 10.7562 3.8286 10.7029 4.36293C10.6489 4.9055 10.5939 5.66224 10.5548 6.69906C10.5374 7.15897 10.1505 7.51772 9.69058 7.50036C9.23067 7.483 8.87191 7.0961 8.88928 6.63619C8.92945 5.57199 8.98641 4.78048 9.04447 4.19772C9.16651 2.97258 10.0207 1.95737 11.3261 1.79779C11.9338 1.72351 12.7503 1.66762 13.8329 1.66762C14.9156 1.66762 15.732 1.72351 16.3397 1.7978C17.6453 1.9574 18.4993 2.97308 18.6213 4.19798C18.7288 5.27652 18.8329 7.07468 18.8329 10.001C18.8329 12.9272 18.7288 14.7254 18.6213 15.8039C18.4993 17.0288 17.6453 18.0445 16.3397 18.2041C15.732 18.2784 14.9156 18.3343 13.8329 18.3343C12.7503 18.3343 11.9338 18.2784 11.3261 18.2041C10.0207 18.0445 9.16651 17.0293 9.04447 15.8042C8.98641 15.2214 8.92945 14.4299 8.88928 13.3657C8.87191 12.9058 9.23067 12.5189 9.69058 12.5015Z" fill="#4c268f"/>
<path fill-rule="evenodd" clip-rule="evenodd" d="M6.50625 12.3284C6.83169 12.6538 6.83169 13.1815 6.50625 13.5069C6.18081 13.8323 5.65317 13.8323 5.32774 13.5069L2.41107 10.5902C2.08563 10.2648 2.08563 9.73716 2.41107 9.41172L5.32774 6.49505C5.65317 6.16962 6.18081 6.16962 6.50625 6.49505C6.83169 6.82049 6.83169 7.34813 6.50625 7.67357L5.01217 9.16764H13.0003C13.4606 9.16764 13.8337 9.54074 13.8337 10.001C13.8337 10.4612 13.4606 10.8343 13.0003 10.8343L5.01217 10.8343L6.50625 12.3284Z" fill="#4c268f"/>
</svg>
