<svg width="40" height="40" viewBox="0 0 40 40" fill="none" xmlns="http://www.w3.org/2000/svg">
<path fill-rule="evenodd" clip-rule="evenodd" d="M13.2929 13.2929C13.6834 12.9024 14.3166 12.9024 14.7071 13.2929L20 18.5858L25.2929 13.2929C25.6834 12.9024 26.3166 12.9024 26.7071 13.2929C27.0976 13.6834 27.0976 14.3166 26.7071 14.7071L21.4142 20L26.7071 25.2929C27.0976 25.6834 27.0976 26.3166 26.7071 26.7071C26.3166 27.0976 25.6834 27.0976 25.2929 26.7071L20 21.4142L14.7071 26.7071C14.3166 27.0976 13.6834 27.0976 13.2929 26.7071C12.9024 26.3166 12.9024 25.6834 13.2929 25.2929L18.5858 20L13.2929 14.7071C12.9024 14.3166 12.9024 13.6834 13.2929 13.2929Z" fill="#55617E"/>
<path d="M20 38C29.9411 38 38 29.9411 38 20H42C42 32.1503 32.1503 42 20 42V38ZM2 20C2 29.9411 10.0589 38 20 38V42C7.84974 42 -2 32.1503 -2 20H2ZM20 2C10.0589 2 2 10.0589 2 20H-2C-2 7.84974 7.84974 -2 20 -2V2ZM20 -2C32.1503 -2 42 7.84974 42 20H38C38 10.0589 29.9411 2 20 2V-2Z" fill="#D9D9D9"/>
</svg>
