<svg width="16" height="12" viewBox="0 0 16 12" fill="none" xmlns="http://www.w3.org/2000/svg">
<path d="M13.3017 1.84544C12.0323 0.807475 10.0243 0.631882 9.93899 0.624424C9.80499 0.612899 9.67766 0.690187 9.62299 0.814933C9.61899 0.823068 9.57499 0.925441 9.52633 1.08476C10.3657 1.22849 11.397 1.51866 12.3303 2.10781C12.4797 2.20205 12.5257 2.40205 12.433 2.55459C12.373 2.65358 12.2683 2.70781 12.1617 2.70781C12.1043 2.70781 12.0463 2.69222 11.9937 2.659C10.3897 1.64748 8.38566 1.59663 8.00033 1.59663C7.61499 1.59663 5.61033 1.64748 4.00766 2.659C3.85766 2.75392 3.66166 2.70646 3.56833 2.55459C3.47499 2.40205 3.52166 2.20273 3.67099 2.10781C4.60433 1.51934 5.63499 1.22849 6.47499 1.08476C6.42566 0.924763 6.38166 0.823068 6.37833 0.814933C6.32299 0.690187 6.19633 0.611543 6.06166 0.625102C5.97699 0.631882 3.96899 0.807475 2.68233 1.86036C2.01033 2.49154 0.666992 6.1851 0.666992 9.37833C0.666992 9.4346 0.681659 9.49019 0.708992 9.539C1.63633 11.1953 4.16566 11.6292 4.74233 11.6482H4.75233C4.85433 11.6482 4.95033 11.5987 5.01033 11.5146L5.59366 10.6997C4.02099 10.2861 3.21766 9.58443 3.17099 9.54307C3.03899 9.42443 3.02633 9.21968 3.14299 9.08544C3.25966 8.95121 3.46033 8.93832 3.59233 9.05629C3.61166 9.07392 5.09099 10.3505 8.00033 10.3505C10.915 10.3505 12.3943 9.06849 12.409 9.05561C12.541 8.939 12.7423 8.95121 12.8583 9.08612C12.9743 9.22036 12.9617 9.42443 12.8303 9.54239C12.7837 9.58443 11.9803 10.2854 10.4077 10.699L10.991 11.5139C11.051 11.598 11.147 11.6475 11.249 11.6475H11.259C11.8357 11.6292 14.365 11.1953 15.2923 9.53832C15.319 9.48951 15.3337 9.4346 15.3337 9.37833C15.3337 6.1851 13.9903 2.49154 13.3017 1.84544ZM5.92766 8.08138C5.31166 8.08138 4.81166 7.50036 4.81166 6.78443C4.81166 6.06849 5.31099 5.48748 5.92766 5.48748C6.54433 5.48748 7.04366 6.06849 7.04366 6.78443C7.04366 7.50036 6.54433 8.08138 5.92766 8.08138ZM10.073 8.08138C9.45699 8.08138 8.95699 7.50036 8.95699 6.78443C8.95699 6.06849 9.45633 5.48748 10.073 5.48748C10.689 5.48748 11.189 6.06849 11.189 6.78443C11.189 7.50036 10.689 8.08138 10.073 8.08138Z" fill="#7879F1"/>
</svg>
