<svg width="16" height="16" viewBox="0 0 16 16" fill="none" xmlns="http://www.w3.org/2000/svg">
<path d="M2.23398 4.44688C2.25273 4.2625 2.18086 4.07812 2.04336 3.95312L0.633984 2.25312V2H5.01523L8.40273 9.42813L11.3809 2H15.559V2.25312L14.3527 3.40937C14.2496 3.4875 14.1965 3.61875 14.2184 3.74688V12.2469C14.1965 12.375 14.2496 12.5063 14.3527 12.5844L15.5309 13.7406V13.9937H9.60273V13.7406L10.8246 12.5562C10.9434 12.4375 10.9434 12.4 10.9434 12.2188V5.35L7.54648 13.9719H7.08711L3.13711 5.35V11.1281C3.10273 11.3719 3.18398 11.6156 3.35586 11.7906L4.94336 13.7156V13.9688H0.443359V13.7188L2.03086 11.7906C2.19961 11.6156 2.27773 11.3688 2.23398 11.1281V4.44688Z" fill="#7879F1"/>
</svg>
