<svg width="20" height="20" viewBox="0 0 20 20" fill="none" xmlns="http://www.w3.org/2000/svg">
<path fill-rule="evenodd" clip-rule="evenodd" d="M7.50033 16.6676C9.80151 16.6676 11.667 14.8021 11.667 12.5009C11.667 10.1997 9.80151 8.33427 7.50033 8.33427C5.19914 8.33427 3.33366 10.1997 3.33366 12.5009C3.33366 14.8021 5.19914 16.6676 7.50033 16.6676ZM7.50033 18.3343C10.722 18.3343 13.3337 15.7226 13.3337 12.5009C13.3337 9.27927 10.722 6.6676 7.50033 6.6676C4.27866 6.6676 1.66699 9.27927 1.66699 12.5009C1.66699 15.7226 4.27866 18.3343 7.50033 18.3343Z" fill="#777E91"/>
<path fill-rule="evenodd" clip-rule="evenodd" d="M12.4996 3.33427C11.2657 3.33427 10.1579 3.8696 9.39374 4.72336C9.0868 5.0663 8.55997 5.09549 8.21703 4.78855C7.87409 4.48161 7.84491 3.95478 8.15185 3.61184C9.21878 2.41977 10.7719 1.6676 12.4996 1.6676C15.7213 1.6676 18.333 4.27927 18.333 7.50094C18.333 9.22865 17.5808 10.7818 16.3887 11.8487C16.0458 12.1557 15.519 12.1265 15.212 11.7835C14.9051 11.4406 14.9343 10.9138 15.2772 10.6068C16.131 9.8427 16.6663 8.73488 16.6663 7.50094C16.6663 5.19975 14.8008 3.33427 12.4996 3.33427Z" fill="#777E91"/>
</svg>
