<svg width="60" height="60" viewBox="0 0 60 60" fill="none" xmlns="http://www.w3.org/2000/svg">
<g filter="url(#filter0_d_183_535)">
<rect x="16" y="4" width="28" height="28" rx="10" fill="#FF6838"/>
</g>
<path fill-rule="evenodd" clip-rule="evenodd" d="M29.2286 12.2126C29.4641 12.0732 29.7298 12 30 12C30.2702 12 30.5359 12.0732 30.7714 12.2126C31.0069 12.352 31.2042 12.5528 31.3443 12.7957L31.3458 12.7983L35.785 20.5897L35.7893 20.5973C35.9266 20.8473 35.9992 21.1306 36 21.4193C36.0008 21.7079 35.9296 21.9917 35.7937 22.2425C35.6577 22.4933 35.4617 22.7022 35.2251 22.8486C34.9884 22.995 34.7195 23.0737 34.445 23.0769L34.4392 23.0769L25.555 23.0769C25.2805 23.0737 25.0116 22.995 24.7749 22.8486C24.5383 22.7022 24.3423 22.4933 24.2063 22.2425C24.0704 21.9917 23.9992 21.7079 24 21.4193C24.0008 21.1306 24.0734 20.8473 24.2107 20.5973L24.215 20.5897L28.6542 12.7983L29.1038 13.0815L28.6557 12.7957C28.7958 12.5528 28.9931 12.352 29.2286 12.2126ZM29.5525 13.3662L25.1167 21.1516C25.0721 21.2341 25.0485 21.3274 25.0482 21.4224C25.048 21.5186 25.0717 21.6132 25.117 21.6968C25.1623 21.7804 25.2277 21.85 25.3065 21.8988C25.3847 21.9472 25.4735 21.9734 25.5642 21.9749H34.4358C34.5265 21.9734 34.6153 21.9472 34.6935 21.8988C34.7723 21.85 34.8377 21.7804 34.883 21.6968C34.9283 21.6132 34.952 21.5186 34.9518 21.4224C34.9515 21.3274 34.9279 21.2341 34.8833 21.1516L30.4481 13.3673C30.4479 13.3669 30.4477 13.3665 30.4475 13.3662C30.4008 13.2857 30.3353 13.2191 30.2571 13.1729C30.1786 13.1264 30.0901 13.102 30 13.102C29.9099 13.102 29.8214 13.1264 29.7429 13.1729C29.6647 13.2191 29.5992 13.2857 29.5525 13.3662Z" fill="white"/>
<path fill-rule="evenodd" clip-rule="evenodd" d="M29.9996 14.7692C30.2545 14.7692 30.4612 15.0447 30.4612 15.3846V17.8461C30.4612 18.186 30.2545 18.4615 29.9996 18.4615C29.7447 18.4615 29.5381 18.186 29.5381 17.8461V15.3846C29.5381 15.0447 29.7447 14.7692 29.9996 14.7692Z" fill="white"/>
<path fill-rule="evenodd" clip-rule="evenodd" d="M29.5381 19.8462C29.5381 19.5913 29.7437 19.3846 29.9973 19.3846H30.0019C30.2556 19.3846 30.4612 19.5913 30.4612 19.8462C30.4612 20.1011 30.2556 20.3077 30.0019 20.3077H29.9973C29.7437 20.3077 29.5381 20.1011 29.5381 19.8462Z" fill="white"/>
<defs>
<filter id="filter0_d_183_535" x="0" y="0" width="60" height="60" filterUnits="userSpaceOnUse" color-interpolation-filters="sRGB">
<feFlood flood-opacity="0" result="BackgroundImageFix"/>
<feColorMatrix in="SourceAlpha" type="matrix" values="0 0 0 0 0 0 0 0 0 0 0 0 0 0 0 0 0 0 127 0" result="hardAlpha"/>
<feOffset dy="12"/>
<feGaussianBlur stdDeviation="8"/>
<feColorMatrix type="matrix" values="0 0 0 0 0 0 0 0 0 0.0627451 0 0 0 0 0.160784 0 0 0 0.1 0"/>
<feBlend mode="normal" in2="BackgroundImageFix" result="effect1_dropShadow_183_535"/>
<feBlend mode="normal" in="SourceGraphic" in2="effect1_dropShadow_183_535" result="shape"/>
</filter>
</defs>
</svg>
