<svg width="228" height="45" viewBox="0 0 228 45" fill="none" xmlns="http://www.w3.org/2000/svg">
<path d="M10.3339 26.7683C10.3339 26.7683 10.3575 29.2985 12.4384 29.7241C14.5194 30.1734 16.4348 29.6532 18.5393 28.5182C18.5393 28.5182 24.2619 25.1839 26.3901 21.3295C26.3901 21.3295 29.3223 16.742 29.4405 15.6779L28.3764 15.205L31.9708 12.0599L32.1836 17.0258L31.1668 16.5528C31.1668 16.5528 30.2445 19.4378 26.1063 24.2381C21.9681 29.0384 16.6949 30.741 15.347 30.9538C13.9991 31.1666 12.2966 31.3558 11.1379 29.9843C9.97916 28.6127 10.3339 26.7683 10.3339 26.7683Z" fill="url(#paint0_linear_183_988)"/>
<path d="M26.1059 20.4782V11.6343H23.0791V24.0489C24.2614 23.0084 25.3728 21.7551 26.1059 20.4782Z" fill="url(#paint1_linear_183_988)"/>
<path d="M21.9677 24.9711V16.3873H18.9409V27.1229C19.5321 26.7446 20.6908 25.9879 21.9677 24.9711Z" fill="url(#paint2_linear_183_988)"/>
<path d="M17.8297 27.8087V20.1235H14.7793V28.8492C15.7961 28.7073 16.7893 28.3289 17.8297 27.8087Z" fill="url(#paint3_linear_183_988)"/>
<path d="M0 38.1188C0 38.1188 5.06043 35.1865 13.7152 35.1865C22.3699 35.1865 23.0557 37.4566 29.9133 37.4566C36.7709 37.4566 41.4057 34.9501 41.4057 34.9501C41.4057 34.9501 34.288 40.649 27.2412 40.649C20.1944 40.649 19.3431 38.8282 14.8029 37.8113C10.2391 36.7709 3.19233 37.2675 0 38.1188Z" fill="url(#paint4_linear_183_988)"/>
<path d="M0.945801 39.9632C0.945801 39.9632 2.8612 38.7809 9.78973 39.9632C16.7183 41.1455 20.8801 45 26.4844 45C32.0887 45 36.8418 40.5071 36.8418 40.5071C36.8418 40.5071 33.3893 42.3988 27.2175 42.3988C21.0456 42.3988 15.0157 38.3079 8.8675 38.3079C2.71932 38.3079 0.945801 39.9632 0.945801 39.9632Z" fill="url(#paint5_linear_183_988)"/>
<path d="M39.228 18.0156C39.0779 15.032 38.2646 12.2357 36.7883 9.63903C35.4996 7.36699 33.8106 5.43201 31.6962 3.85905C30.5827 2.96022 29.3566 2.27361 28.0679 1.68688C25.3529 0.463467 22.5003 -0.0983024 19.5101 0.0140515C17.4582 0.0889541 15.4815 0.488435 13.5672 1.18753C12.6414 1.52459 11.7406 1.92407 10.8898 2.44839C10.8397 2.47335 10.7897 2.49832 10.7396 2.52329C7.08633 4.64553 4.39639 7.64163 2.71987 11.5116C1.25604 14.9197 0.843163 18.4526 1.45622 22.0978C2.05676 25.6932 3.57064 28.8391 5.97282 31.573C6.02286 31.6229 6.0604 31.7103 6.14798 31.7103C6.63592 31.7103 7.13638 31.7103 7.69939 31.7228C7.58678 31.598 7.52423 31.5356 7.47418 31.4731C5.34725 29.301 3.8584 26.7668 3.04516 23.8456C2.08179 20.425 2.11932 17.0169 3.1953 13.6338C4.14616 10.6003 5.82268 8.01614 8.1498 5.85645C9.02559 5.04501 9.97645 4.3584 10.9774 3.70925C11.653 3.3597 12.3036 2.9727 13.0042 2.67309C15.031 1.77426 17.158 1.27491 19.385 1.16256C20.511 1.10014 21.637 1.16256 22.7631 1.32485C24.7273 1.61197 26.579 2.19871 28.3556 3.08506C29.5192 3.67179 30.5827 4.40834 31.6086 5.19481C32.1216 5.65671 32.6595 6.10613 33.135 6.61796C37.0886 10.85 38.715 15.8435 37.9393 21.5735C37.4264 25.406 35.7248 28.6893 33.0349 31.4607C32.8347 31.6604 32.647 31.8726 32.3843 32.1473C32.9223 32.1473 33.3727 32.1473 33.8231 32.1597C33.9732 32.1597 34.0483 32.0848 34.1234 31.9975C35.4496 30.5868 36.5506 29.0138 37.3888 27.2786C38.7776 24.3449 39.3907 21.2614 39.228 18.0156ZM10.9023 3.58441C10.9023 3.53447 10.9023 3.48454 10.9023 3.42212C10.9023 3.48454 10.9023 3.53447 10.9023 3.58441ZM10.9148 3.27231C10.9148 3.22238 10.9148 3.17244 10.9148 3.11002C10.9148 3.15996 10.9148 3.22238 10.9148 3.27231Z" fill="url(#paint6_linear_183_988)"/>
<path d="M102.546 22.1679C105.119 23.0446 105.861 25.4355 105.411 27.1091C104.986 28.6764 103.66 29.7922 101.936 29.7922C99.761 29.7922 97.586 29.8187 95.4111 29.8719C95.2254 29.8719 94.9602 29.9781 94.9071 29.7125C94.8806 29.4734 95.1458 29.5265 95.305 29.4734C95.9681 29.2077 96.1803 28.6499 96.2068 27.9857C96.2333 25.9668 96.2598 23.9478 96.2598 21.9288C96.2598 20.4412 96.2333 18.927 96.2333 17.4393C96.2333 16.6423 95.9946 16.0313 95.1458 15.7923C95.0397 15.7657 94.9071 15.686 94.9071 15.5532C94.9336 15.3406 95.0928 15.4203 95.2254 15.4203C97.029 15.4735 98.8592 15.4735 100.663 15.5532C102.201 15.6329 103.395 16.3501 103.925 17.8378C104.456 19.2989 104.084 20.6271 103.023 21.7694C102.944 21.9023 102.785 21.982 102.546 22.1679ZM99.9732 23.2305C99.4692 23.2305 98.9653 23.2305 98.4878 23.2305C98.2491 23.2305 98.1165 23.3102 98.1165 23.5759C98.09 25.0635 98.0635 26.5778 98.0369 28.0654C98.0369 28.5436 98.2756 28.7827 98.7796 28.7827C99.5753 28.8092 100.371 28.7561 101.167 28.7296C102.732 28.6764 103.687 27.6935 103.687 26.0996C103.687 24.426 102.652 23.2837 101.114 23.2571C100.716 23.204 100.345 23.2305 99.9732 23.2305ZM98.0104 19.352C98.0369 19.352 98.0369 19.352 98.0104 19.352C98.0369 19.777 98.0369 20.2021 98.0369 20.6006C98.0369 20.7334 98.0635 20.8662 98.0635 21.0256C98.1165 22.1414 98.1165 22.1414 99.257 22.1679C100.185 22.1945 101.061 22.0085 101.671 21.2381C102.44 20.2552 102.573 19.166 102.095 18.0237C101.644 16.9611 100.769 16.5626 99.6549 16.5892C99.257 16.5892 98.8592 16.6158 98.4613 16.5892C98.1165 16.5626 98.0104 16.6955 98.0104 17.0143C98.0369 17.8112 98.0104 18.5816 98.0104 19.352Z" fill="#EFC358"/>
<path d="M189.809 18.6081C189.809 19.9364 189.809 21.0787 189.809 22.2476C189.783 24.054 189.783 25.887 189.756 27.6935C189.73 28.4639 189.942 29.0483 190.764 29.2343C190.897 29.2608 191.056 29.2874 191.003 29.4999C190.976 29.6327 190.817 29.6327 190.711 29.6327C189.703 29.6593 188.669 29.7124 187.661 29.739C187.528 29.739 187.343 29.7921 187.29 29.6062C187.237 29.3671 187.449 29.3936 187.608 29.3405C188.244 29.128 188.589 28.6764 188.616 28.0122C188.775 24.7713 188.748 21.5038 188.642 18.2362C188.616 17.3064 188.642 16.3501 188.536 15.4203C188.51 15.2875 188.536 15.1281 188.695 15.075C188.908 14.9953 189.04 15.1547 189.146 15.2875C189.915 16.1376 190.711 16.9877 191.48 17.8643C193.655 20.3349 195.83 22.8055 198.005 25.276C198.244 25.5682 198.509 25.8339 198.774 26.1261C198.827 26.0464 198.854 25.9933 198.854 25.9402C198.854 23.0445 198.801 20.1489 198.96 17.2533C199.013 16.297 198.801 16.0579 197.873 15.686C197.766 15.6328 197.687 15.6063 197.713 15.4734C197.74 15.3672 197.846 15.314 197.952 15.314C199.04 15.2875 200.101 15.2343 201.188 15.2078C201.294 15.2078 201.4 15.2078 201.4 15.3406C201.4 15.4469 201.347 15.5266 201.241 15.5531C200.286 15.8188 200.127 16.5892 200.101 17.4393C199.994 21.0521 199.994 24.665 200.127 28.2779C200.154 28.6233 200.18 28.9952 200.207 29.3405C200.207 29.4999 200.233 29.6859 200.074 29.7656C199.862 29.8718 199.729 29.7124 199.597 29.6062C199.199 29.1811 198.827 28.7561 198.43 28.331C195.777 25.4885 193.257 22.5132 190.711 19.5645C190.446 19.2988 190.181 19.0066 189.809 18.6081Z" fill="#EFC358"/>
<path d="M167.371 26.2058C167.371 25.462 167.371 24.851 167.371 24.24C167.371 21.9554 167.344 19.6973 167.477 17.4127C167.53 16.5892 167.424 15.8188 166.363 15.686C166.283 15.686 166.204 15.6063 166.23 15.5266C166.23 15.4203 166.336 15.3406 166.443 15.3406C167.53 15.2875 168.644 15.2609 169.731 15.2344C169.811 15.2344 169.891 15.2344 169.891 15.3406C169.891 15.4469 169.864 15.5266 169.758 15.5797C168.697 15.8719 168.617 16.722 168.591 17.6252C168.485 21.185 168.485 24.7447 168.617 28.2779C168.644 28.6498 168.671 29.0217 168.724 29.4202C168.724 29.5796 168.724 29.7656 168.564 29.8453C168.405 29.925 168.246 29.7921 168.14 29.6859C167.61 29.1014 167.106 28.5436 166.575 27.9591C164.055 25.2495 161.668 22.3804 159.228 19.5911C158.963 19.2989 158.698 19.0066 158.353 18.6347C158.353 19.1926 158.353 19.6176 158.353 20.0161C158.326 22.4867 158.406 24.9307 158.3 27.4013C158.273 28.2514 158.3 29.0749 159.387 29.314C159.493 29.3405 159.573 29.3937 159.546 29.5265C159.546 29.6593 159.44 29.6859 159.334 29.6859C158.247 29.7124 157.133 29.7656 156.045 29.7921C155.939 29.7921 155.833 29.7656 155.833 29.6328C155.833 29.5265 155.913 29.4468 156.019 29.4202C156.947 29.2343 157.186 28.5701 157.212 27.72C157.318 24.5588 157.345 21.3975 157.212 18.2628C157.186 17.333 157.133 16.4298 157.106 15.5C157.106 15.3672 157.106 15.2078 157.239 15.1281C157.451 15.0218 157.584 15.1812 157.69 15.3141C158.485 16.1907 159.281 17.0674 160.077 17.9175C162.331 20.3349 164.427 22.8586 166.602 25.3292C166.787 25.5948 167.026 25.8605 167.371 26.2058Z" fill="#EFC358"/>
<path d="M211.055 29.739C209.358 29.739 207.713 29.4999 206.202 28.6498C204.212 27.5075 203.178 25.7542 202.966 23.4961C202.78 21.5569 203.045 19.6973 204.265 18.1034C205.485 16.4563 207.209 15.6859 209.172 15.4203C210.949 15.1812 212.753 15.1546 214.477 15.8453C214.504 15.8453 214.504 15.8453 214.53 15.8719C215.883 16.4298 216.068 16.7486 215.83 18.1831C215.803 18.3425 215.856 18.5284 215.671 18.6081C215.458 18.6878 215.352 18.5019 215.246 18.369C214.583 17.5721 213.787 17.0142 212.806 16.6954C208.827 15.3406 204.796 18.1831 204.743 22.407C204.716 25.6745 206.626 28.1451 209.703 28.6498C211.931 29.0217 213.893 28.4107 215.352 26.5512C215.458 26.4183 215.538 26.1527 215.803 26.2589C216.015 26.3386 215.989 26.6043 215.989 26.7902C215.989 26.8965 215.962 27.0293 215.989 27.1622C216.254 28.2513 215.618 28.7561 214.769 29.1545C213.602 29.6062 212.329 29.739 211.055 29.739Z" fill="#EFC358"/>
<path d="M125.091 28.5702C125.728 28.5702 126.365 28.5702 127.001 28.5702C127.823 28.5702 128.513 28.3576 128.858 27.5341C128.911 27.4013 128.99 27.2685 129.176 27.3216C129.388 27.3747 129.362 27.5607 129.309 27.7201C129.229 28.0654 129.176 28.4108 129.07 28.7827C128.831 29.739 128.831 29.739 127.903 29.6859C125.304 29.5796 122.731 29.5531 120.131 29.7125C119.972 29.7125 119.813 29.7125 119.654 29.7125C119.521 29.7125 119.336 29.7656 119.336 29.5531C119.309 29.3671 119.495 29.3671 119.627 29.314C120.344 29.1015 120.635 28.5702 120.662 27.8529C120.821 24.24 120.768 20.6271 120.662 17.0143C120.635 16.297 120.317 15.872 119.654 15.6329C119.521 15.5797 119.283 15.5532 119.336 15.3406C119.389 15.1281 119.574 15.1813 119.734 15.1813C122.28 15.3938 124.826 15.3141 127.399 15.2344C127.876 15.2078 128.035 15.3672 127.982 15.8454C127.929 16.2439 127.982 16.6423 127.956 17.0408C127.956 17.2002 127.956 17.3862 127.744 17.4127C127.532 17.4393 127.505 17.2799 127.452 17.1205C127.16 16.2704 127.134 16.297 126.232 16.297C125.144 16.3236 124.03 16.3236 122.943 16.3236C122.598 16.3236 122.465 16.3767 122.465 16.7752C122.519 18.2628 122.519 19.7771 122.519 21.2647C122.519 21.6366 122.651 21.7429 122.996 21.7163C123.553 21.6898 124.11 21.6898 124.667 21.7163C125.25 21.7429 125.728 21.5304 125.993 20.9991C126.073 20.8397 126.152 20.7068 126.338 20.76C126.55 20.8131 126.497 20.9991 126.497 21.1584C126.497 21.8757 126.497 22.593 126.497 23.3102C126.497 23.4696 126.524 23.6556 126.338 23.7353C126.152 23.7884 126.046 23.6556 125.993 23.4962C125.728 22.9383 125.277 22.7524 124.667 22.7789C124.11 22.8055 123.553 22.8055 122.996 22.7789C122.651 22.7789 122.492 22.8321 122.492 23.2305C122.492 24.851 122.465 26.4715 122.439 28.092C122.439 28.4373 122.545 28.4905 122.837 28.4905C123.579 28.4639 124.322 28.4905 125.038 28.4905C125.091 28.5702 125.091 28.5702 125.091 28.5702Z" fill="#EFC358"/>
<path d="M223.23 28.5701C223.919 28.5701 224.635 28.5967 225.325 28.5701C226.041 28.5436 226.651 28.3045 226.969 27.5872C227.049 27.4278 227.102 27.2684 227.314 27.3481C227.5 27.4278 227.473 27.5872 227.447 27.7466C227.447 27.7732 227.42 27.8263 227.42 27.8529C227.129 29.6593 227.129 29.6327 225.325 29.6327C222.964 29.6062 220.577 29.5531 218.217 29.7124C218.057 29.7124 217.898 29.7124 217.739 29.7124C217.607 29.7124 217.5 29.7124 217.474 29.5531C217.474 29.4202 217.553 29.3937 217.66 29.3671C218.561 29.128 218.774 28.4904 218.8 27.6404C218.933 24.9041 218.853 22.1679 218.88 19.4317C218.88 18.6613 218.8 17.9175 218.8 17.1471C218.8 16.4032 218.482 15.8985 217.766 15.6594C217.633 15.6063 217.394 15.5797 217.474 15.3672C217.527 15.1812 217.739 15.2078 217.898 15.2344C220.418 15.4469 222.964 15.3672 225.484 15.2875C225.962 15.2609 226.174 15.3938 226.121 15.9251C226.068 16.3501 226.121 16.7751 226.094 17.1736C226.094 17.3065 226.068 17.4658 225.882 17.4658C225.696 17.4924 225.643 17.3596 225.617 17.2002C225.431 16.1907 225.113 16.3235 224.291 16.3501C223.203 16.3767 222.142 16.3767 221.055 16.3767C220.683 16.3767 220.577 16.4564 220.604 16.8548C220.657 18.3425 220.657 19.8567 220.657 21.3444C220.657 21.6632 220.736 21.8226 221.081 21.796C221.638 21.7694 222.195 21.7694 222.752 21.796C223.362 21.8226 223.866 21.6366 224.131 21.0522C224.211 20.8928 224.291 20.7599 224.503 20.8131C224.688 20.8662 224.662 21.0256 224.662 21.1584C224.662 21.9288 224.662 22.6726 224.662 23.443C224.662 23.5759 224.662 23.7353 224.503 23.7884C224.344 23.8415 224.237 23.7353 224.184 23.5759C223.893 22.9117 223.362 22.7789 222.699 22.8055C222.169 22.832 221.612 22.832 221.081 22.8055C220.789 22.8055 220.657 22.8852 220.657 23.2039C220.657 24.851 220.63 26.4715 220.604 28.1185C220.604 28.4639 220.763 28.4904 221.028 28.4904C221.744 28.5436 222.487 28.5436 223.23 28.5701Z" fill="#EFC358"/>
<path d="M183.762 29.6593C183.179 29.6593 182.595 29.6593 182.038 29.6593C181.906 29.6593 181.746 29.6593 181.693 29.4999C181.614 29.2874 181.826 29.2874 181.932 29.2343C182.197 29.0749 182.25 28.8092 182.144 28.5436C181.561 27.0294 180.951 25.5417 180.394 24.0275C180.288 23.7618 180.129 23.7087 179.89 23.7353C178.882 23.7353 177.847 23.7353 176.84 23.7353C176.574 23.7353 176.442 23.815 176.362 24.054C175.805 25.4886 175.222 26.8965 174.638 28.3311C174.479 28.7295 174.373 29.128 174.956 29.2874C175.009 29.314 175.089 29.3937 175.089 29.4468C175.089 29.5531 174.983 29.6062 174.877 29.6328C173.869 29.7125 172.834 29.7656 171.827 29.739C171.747 29.739 171.667 29.7125 171.641 29.6062C171.614 29.4999 171.694 29.4202 171.8 29.3937C173.1 29.1812 173.524 28.1717 173.922 27.1091C175.381 23.3634 176.84 19.5911 178.298 15.8454C178.351 15.686 178.404 15.5266 178.484 15.4203C178.643 15.1812 178.855 15.1812 178.988 15.4469C179.121 15.686 179.2 15.9516 179.306 16.2173C180.739 19.9364 182.091 23.7087 183.63 27.3747C184.028 28.3311 184.478 29.2077 185.645 29.3671C185.778 29.3937 185.884 29.4734 185.858 29.6062C185.831 29.7656 185.672 29.7125 185.566 29.7125C184.982 29.7125 184.399 29.7125 183.842 29.7125C183.762 29.7125 183.762 29.6859 183.762 29.6593ZM176.84 22.6727C177.768 22.6727 178.59 22.6727 179.439 22.6727C179.651 22.6727 179.784 22.6195 179.704 22.3539C179.253 21.2116 178.829 20.0427 178.325 18.7676C177.821 20.1489 177.344 21.371 176.84 22.6727Z" fill="#EFC358"/>
<path d="M91.4059 29.6593C90.8224 29.6593 90.2388 29.6593 89.6818 29.6593C89.5492 29.6593 89.3901 29.6593 89.3105 29.4999C89.2309 29.2874 89.4166 29.2874 89.5227 29.2342C89.8145 29.0483 89.841 28.7826 89.7349 28.517C89.1514 27.0293 88.5678 25.5417 87.9843 24.054C87.8782 23.8149 87.7456 23.7352 87.4804 23.7352C86.4725 23.7352 85.438 23.7352 84.4301 23.7352C84.1649 23.7352 84.0323 23.8149 83.9262 24.054C83.3692 25.5151 82.6795 26.9231 82.2021 28.3841C82.0695 28.7826 81.9899 29.128 82.5204 29.2874C82.6265 29.3139 82.7061 29.3936 82.653 29.4999C82.6265 29.6062 82.5204 29.6327 82.4143 29.6327C81.4329 29.6593 80.4515 29.6858 79.4702 29.739C79.3641 29.739 79.2049 29.739 79.2315 29.553C79.2315 29.4202 79.3375 29.3936 79.4436 29.3671C80.5046 29.1811 80.982 28.4107 81.3534 27.5075C82.9183 23.6555 84.4036 19.7504 85.8889 15.8453C85.942 15.7391 85.9685 15.6328 86.0216 15.5C86.0746 15.3406 86.1807 15.2078 86.3664 15.2078C86.5255 15.2343 86.5786 15.3672 86.6316 15.5C86.8438 16.0313 87.056 16.5892 87.2416 17.1205C88.5148 20.4411 89.7084 23.7884 91.0876 27.0559C91.5385 28.0919 91.9098 29.1811 93.2626 29.3671C93.3686 29.3671 93.4482 29.4733 93.4217 29.5796C93.3952 29.7124 93.2891 29.6858 93.183 29.6858C92.5729 29.6858 91.9894 29.6858 91.3794 29.6858C91.4059 29.7124 91.4059 29.6858 91.4059 29.6593ZM85.9685 18.7941C85.4646 20.0958 85.0402 21.2381 84.5893 22.3804C84.4832 22.646 84.5893 22.6726 84.8015 22.6726C85.5441 22.6726 86.2603 22.6726 87.0029 22.6726C87.3477 22.6726 87.4008 22.5663 87.2947 22.2476C86.8438 21.1584 86.4459 20.0426 85.9685 18.7941Z" fill="#EFC358"/>
<path d="M140.316 19.1926C140.316 19.9896 140.316 20.7865 140.316 21.5835C140.316 21.8491 140.37 21.982 140.661 21.982C141.351 21.9554 142.041 21.982 142.757 21.982C143.234 21.982 143.579 21.7429 143.791 21.2913C143.871 21.1584 143.924 20.9725 144.136 20.999C144.322 21.0256 144.348 21.2116 144.348 21.371C144.348 22.1148 144.348 22.8586 144.348 23.5759C144.348 23.7353 144.348 23.9212 144.136 23.9478C143.924 24.0009 143.871 23.815 143.818 23.6556C143.579 23.1774 143.181 22.9649 142.651 22.9649C141.987 22.9649 141.324 22.9649 140.688 22.9383C140.396 22.9383 140.316 23.0711 140.316 23.3368C140.316 24.8776 140.316 26.4184 140.29 27.9592C140.29 28.6233 140.635 28.9686 141.245 29.1546C141.377 29.2077 141.616 29.1812 141.59 29.3937C141.563 29.5796 141.351 29.5531 141.192 29.5531C140.025 29.5265 138.831 29.5796 137.664 29.6593C137.505 29.6593 137.266 29.739 137.213 29.4999C137.187 29.2874 137.425 29.2874 137.558 29.2343C138.248 28.9952 138.486 28.4639 138.486 27.7998C138.513 24.7979 138.513 21.7163 138.513 18.6347C138.513 18.1034 138.513 17.5456 138.486 17.0143C138.46 16.3767 138.168 15.8719 137.531 15.6329C137.399 15.5797 137.187 15.5532 137.213 15.3406C137.24 15.1547 137.425 15.2078 137.558 15.2078C140.051 15.3938 142.544 15.3672 145.011 15.2078C145.807 15.1547 145.807 15.2078 145.754 16.0048C145.754 16.1642 145.754 16.3236 145.754 16.4829C145.754 16.6423 145.727 16.7752 145.542 16.8017C145.409 16.8283 145.276 16.8017 145.25 16.6689C145.144 16.3501 144.852 16.4033 144.587 16.4033C143.314 16.4033 142.041 16.4298 140.767 16.4033C140.423 16.4033 140.316 16.4829 140.316 16.8283C140.343 17.6253 140.316 18.4222 140.316 19.1926Z" fill="#EFC358"/>
<path d="M74.909 22.5398C74.909 24.3197 74.909 26.0996 74.909 27.8794C74.909 28.8624 75.1477 29.128 76.0495 29.4468C76.1556 29.4734 76.3148 29.4999 76.2883 29.6593C76.2617 29.8187 76.0761 29.8453 75.9434 29.8453C75.0416 29.8453 74.1398 29.8453 73.238 29.8453C72.8402 29.8453 72.4423 29.8453 72.0444 29.8187C71.9383 29.8187 71.7792 29.7656 71.7792 29.6062C71.7792 29.4468 71.9118 29.4468 72.0444 29.4202C72.8667 29.1546 73.0789 28.8624 73.0789 27.9857C73.0789 24.3994 73.0523 20.7865 73.0789 17.2002C73.0789 16.722 72.9197 16.6423 72.4953 16.6423C71.5405 16.6423 70.5856 16.6158 69.6308 16.5892C68.8085 16.5626 68.0393 16.6423 67.3762 17.1736C67.2436 17.2799 67.111 17.3862 66.9519 17.2002C66.8458 17.0408 66.9519 16.9345 67.0314 16.8283C67.4293 16.4298 67.8006 16.0313 68.1985 15.6328C68.3842 15.4469 68.6494 15.5 68.8881 15.5C70.957 15.5797 72.9463 15.6063 74.9621 15.5531C76.3943 15.5266 77.8266 15.5 79.2589 15.4203C79.7098 15.3938 79.8424 15.5 79.7894 15.9251C79.7363 16.4032 79.7098 16.8814 79.6833 17.3596C79.6833 17.519 79.6303 17.6518 79.4711 17.6784C79.2589 17.7049 79.1793 17.519 79.2059 17.3596C79.2059 16.6158 78.7815 16.4829 78.1449 16.5095C77.2431 16.5626 76.3413 16.5626 75.413 16.5626C75.0151 16.5626 74.909 16.6955 74.909 17.0674C74.9355 18.9004 74.909 20.7068 74.909 22.5398Z" fill="#EFC358"/>
<path d="M60.1348 29.6062C59.1003 29.553 58.0659 29.4468 57.0315 29.2608C56.448 29.1546 56.1297 28.942 56.1297 28.3045C56.1297 27.9857 55.8379 27.5872 56.1297 27.3481C56.448 27.109 56.7397 27.5075 57.0315 27.6403C58.172 28.1982 59.3391 28.6498 60.6387 28.517C61.5405 28.4107 62.1771 27.9857 62.5484 27.1622C62.8932 26.3918 62.628 25.7276 62.1506 25.0901C61.6201 24.3994 60.957 23.8681 60.2939 23.3368C59.6308 22.8055 58.9677 22.2476 58.3046 21.7163C57.005 20.6537 56.7662 19.2723 57.1906 17.7581C57.5885 16.3235 58.8086 15.4469 60.4265 15.3406C61.5671 15.2609 62.7076 15.3937 63.8216 15.6328C64.0603 15.686 64.246 15.7657 64.2194 16.0579C64.1929 16.4298 64.3521 16.8548 64.0603 17.1471C63.8746 17.333 63.7155 17.0674 63.5563 16.9611C62.3893 16.1907 61.1427 16.0844 59.8695 16.6954C58.4903 17.333 58.172 18.7941 59.1269 19.9895C59.7369 20.7599 60.5326 21.3444 61.3018 21.9288C61.8853 22.3804 62.4689 22.832 62.9463 23.3899C64.0603 24.6385 64.4847 26.073 63.742 27.6403C63.0789 29.2077 61.7527 29.6859 60.1348 29.6062Z" fill="#EFC358"/>
<path d="M112.678 28.5701C113.341 28.5701 114.005 28.5701 114.641 28.5701C115.41 28.5701 116.047 28.3311 116.392 27.5607C116.471 27.4013 116.551 27.2684 116.736 27.3481C116.896 27.4278 116.869 27.5607 116.843 27.7201C116.71 28.2779 116.604 28.8092 116.471 29.3671C116.392 29.739 116.126 29.739 115.835 29.7125C113.607 29.5796 111.379 29.6328 109.124 29.6593C108.488 29.6593 107.851 29.7125 107.214 29.739C107.082 29.739 106.896 29.7921 106.87 29.6062C106.817 29.4202 107.002 29.3937 107.135 29.3671C107.878 29.1546 108.169 28.6233 108.196 27.8794C108.328 24.2931 108.328 20.7334 108.196 17.1471C108.169 16.4298 107.904 15.9251 107.188 15.686C107.055 15.6328 106.817 15.6063 106.87 15.3938C106.896 15.1281 107.161 15.2344 107.321 15.2344C108.461 15.3406 109.602 15.3406 110.742 15.3672C110.954 15.3672 111.246 15.3141 111.273 15.6063C111.299 15.8454 111.007 15.7657 110.848 15.8188C110.291 16.0048 110.026 16.4298 110.026 17.2002C110.026 18.9004 110.079 20.6006 110.079 22.3007C110.079 24.1869 110.079 26.0464 109.999 27.9326C109.973 28.517 110.185 28.6233 110.689 28.5967C111.352 28.5436 112.015 28.5967 112.652 28.5967C112.678 28.5701 112.678 28.5701 112.678 28.5701Z" fill="#EFC358"/>
<path d="M152.517 29.7125C151.35 29.5796 150.236 29.5531 149.122 29.7125C148.963 29.739 148.777 29.7922 148.698 29.6062C148.618 29.3671 148.857 29.3937 148.989 29.314C149.626 29.0218 149.891 28.5701 149.891 27.8529C149.865 24.3463 149.865 20.8131 149.891 17.3065C149.891 16.5626 149.652 16.0313 148.936 15.7657C148.804 15.7125 148.644 15.6594 148.698 15.5C148.751 15.3141 148.936 15.3938 149.069 15.3938C150.209 15.5266 151.323 15.5532 152.464 15.3672C152.623 15.3406 152.809 15.2875 152.862 15.5266C152.888 15.7125 152.703 15.7125 152.57 15.7657C151.907 16.0579 151.642 16.5361 151.642 17.2799C151.668 20.7865 151.668 24.3197 151.642 27.8263C151.642 28.5436 151.907 29.0483 152.57 29.3405C152.703 29.3937 152.915 29.4202 152.835 29.6593C152.782 29.8187 152.597 29.7125 152.517 29.7125Z" fill="#EFC358"/>
<defs>
<linearGradient id="paint0_linear_183_988" x1="10.2899" y1="21.5744" x2="32.1872" y2="21.5744" gradientUnits="userSpaceOnUse">
<stop stop-color="#D5992B"/>
<stop offset="0.5" stop-color="#F1CA63"/>
<stop offset="1" stop-color="#D5992B"/>
</linearGradient>
<linearGradient id="paint1_linear_183_988" x1="23.0757" y1="17.8566" x2="26.1097" y2="17.8566" gradientUnits="userSpaceOnUse">
<stop stop-color="#D5992B"/>
<stop offset="0.5" stop-color="#F1CA63"/>
<stop offset="1" stop-color="#D5992B"/>
</linearGradient>
<linearGradient id="paint2_linear_183_988" x1="18.9376" y1="21.7474" x2="21.9716" y2="21.7474" gradientUnits="userSpaceOnUse">
<stop stop-color="#D5992B"/>
<stop offset="0.5" stop-color="#F1CA63"/>
<stop offset="1" stop-color="#D5992B"/>
</linearGradient>
<linearGradient id="paint3_linear_183_988" x1="14.7906" y1="24.4932" x2="17.8246" y2="24.4932" gradientUnits="userSpaceOnUse">
<stop stop-color="#D5992B"/>
<stop offset="0.5" stop-color="#F1CA63"/>
<stop offset="1" stop-color="#D5992B"/>
</linearGradient>
<linearGradient id="paint4_linear_183_988" x1="0" y1="37.8016" x2="41.3865" y2="37.8016" gradientUnits="userSpaceOnUse">
<stop stop-color="#D5992B"/>
<stop offset="0.5" stop-color="#F1CA63"/>
<stop offset="1" stop-color="#D5992B"/>
</linearGradient>
<linearGradient id="paint5_linear_183_988" x1="0.945091" y1="41.6451" x2="36.8336" y2="41.6451" gradientUnits="userSpaceOnUse">
<stop stop-color="#D5992B"/>
<stop offset="0.5" stop-color="#F1CA63"/>
<stop offset="1" stop-color="#D5992B"/>
</linearGradient>
<linearGradient id="paint6_linear_183_988" x1="1.139" y1="16.1188" x2="39.3009" y2="16.1188" gradientUnits="userSpaceOnUse">
<stop stop-color="#D5992B"/>
<stop offset="0.5" stop-color="#F1CA63"/>
<stop offset="1" stop-color="#D5992B"/>
</linearGradient>
</defs>
</svg>
