<svg width="20" height="17" viewBox="0 0 20 17" fill="none" xmlns="http://www.w3.org/2000/svg">
<path d="M7.90933 0.500001C7.35705 0.499384 6.90883 0.946599 6.90821 1.49888C6.9076 2.05117 7.35481 2.49938 7.9071 2.5L7.90933 0.500001ZM15.7335 2.50874C16.2858 2.50936 16.734 2.06214 16.7346 1.50986C16.7352 0.957574 16.288 0.509359 15.7357 0.508742L15.7335 2.50874ZM18.9658 10.6922V11.6922C19.5181 11.6922 19.9658 11.2445 19.9658 10.6922H18.9658ZM18.9658 6.32142H19.9658C19.9658 5.76914 19.5181 5.32142 18.9658 5.32142V6.32142ZM19.9658 3.48043C19.9658 2.92815 19.5181 2.48043 18.9658 2.48043C18.4135 2.48043 17.9658 2.92815 17.9658 3.48043H19.9658ZM17.9658 13.9702C17.9658 14.5225 18.4135 14.9702 18.9658 14.9702C19.5181 14.9702 19.9658 14.5225 19.9658 13.9702H17.9658ZM15.7357 0.508742L7.90933 0.500001L7.9071 2.5L15.7335 2.50874L15.7357 0.508742ZM2.96582 2.38774C2.96582 2.43065 2.92488 2.51359 2.81582 2.51359V0.513593C1.76788 0.513593 0.96582 1.37925 0.96582 2.38774H2.96582ZM2.81582 2.51359H18.1158V0.513593H2.81582V2.51359ZM18.1158 2.51359C18.0068 2.51359 17.9658 2.43064 17.9658 2.38774H19.9658C19.9658 1.37926 19.1638 0.513593 18.1158 0.513593V2.51359ZM17.9658 2.38774V14.6258H19.9658V2.38774H17.9658ZM17.9658 14.6258C17.9658 14.583 18.0068 14.5 18.1158 14.5V16.5C19.1638 16.5 19.9658 15.6343 19.9658 14.6258H17.9658ZM18.1158 14.5H2.81582V16.5H18.1158V14.5ZM2.81582 14.5C2.92488 14.5 2.96582 14.5829 2.96582 14.6258H0.96582C0.96582 15.6343 1.76788 16.5 2.81582 16.5V14.5ZM2.96582 14.6258V2.38774H0.96582V14.6258H2.96582ZM15.2471 11.6922H18.9658V9.69217H15.2471V11.6922ZM19.9658 10.6922V6.32142H17.9658V10.6922H19.9658ZM18.9658 5.32142H15.2471V7.32142H18.9658V5.32142ZM15.2471 5.32142C13.4822 5.32142 12.0158 6.72809 12.0158 8.5068H14.0158C14.0158 7.87162 14.5474 7.32142 15.2471 7.32142V5.32142ZM12.0158 8.5068C12.0158 10.2855 13.4822 11.6922 15.2471 11.6922V9.69217C14.5474 9.69217 14.0158 9.14197 14.0158 8.5068H12.0158ZM17.9658 3.48043V13.9702H19.9658V3.48043H17.9658Z" fill="white"/>
</svg>
